# xmcd
#
# Track frame offsets:
#	150
#	9131
#	18521
#	26941
#
# Disc length: 575 seconds
#
# Revision: 1
# Processed by: cddbd v1.5.1PL0 Copyright (c) Steve Scherf et al.
# Submitted via: EasyCDDAExtractor 7.0.9.1
#
DISCID=23023d04
DTITLE=The UK Smears - Paraphrased EP
DYEAR=2004
DGENRE=Punk
TTITLE0=Bring It On
TTITLE1=Snatch Hope
TTITLE2=Horribly Wrong
TTITLE3=Chicken Scratch
EXTD=
EXTT0=
EXTT1=
EXTT2=
EXTT3=
PLAYORDER=
